<?xml version="1.0" standalone="no"?>
<!DOCTYPE svg PUBLIC "-//W3C//DTD SVG 20010904//EN"
 "http://www.w3.org/TR/2001/REC-SVG-20010904/DTD/svg10.dtd">
<svg version="1.0" xmlns="http://www.w3.org/2000/svg"
 width="800.000000pt" height="800.000000pt" viewBox="0 0 800.000000 800.000000"
 preserveAspectRatio="xMidYMid meet">
<metadata>
Created by potrace 1.14, written by Peter Selinger 2001-2017
</metadata>
<g transform="translate(0.000000,800.000000) scale(0.100000,-0.100000)"
fill="#000000" stroke="none">
<path d="M3879 7928 c-167 -94 -189 -107 -299 -170 -52 -30 -115 -66 -140 -80
-25 -14 -121 -69 -215 -123 -243 -140 -244 -140 -310 -175 -33 -18 -62 -35
-65 -39 -5 -5 -49 -31 -125 -70 -16 -9 -35 -22 -43 -28 -7 -7 -17 -13 -22 -13
-5 0 -44 -21 -87 -46 -43 -26 -96 -57 -118 -69 -22 -12 -56 -31 -75 -42 -19
-11 -62 -35 -95 -53 -33 -19 -71 -42 -84 -52 -13 -10 -27 -15 -32 -12 -5 3 -9
0 -9 -5 0 -6 -4 -11 -9 -11 -5 0 -46 -22 -90 -50 -45 -27 -81 -47 -81 -45 0 3
-24 -10 -52 -29 -29 -18 -116 -68 -193 -112 -77 -43 -148 -83 -157 -89 -9 -5
-41 -23 -70 -39 -29 -16 -65 -37 -80 -47 -14 -11 -29 -19 -32 -19 -3 0 -29
-14 -58 -31 -29 -18 -69 -41 -88 -51 -19 -11 -117 -67 -216 -124 -100 -57
-187 -104 -193 -104 -6 0 -11 -4 -11 -8 0 -4 -24 -20 -52 -35 -53 -28 -85 -46
-210 -119 l-68 -39 0 -1998 0 -1998 40 -27 c22 -14 42 -26 45 -26 4 0 44 -23
91 -50 47 -28 87 -50 90 -50 3 0 18 -8 32 -19 24 -17 69 -42 172 -97 19 -11
37 -22 40 -25 3 -3 12 -9 20 -12 8 -4 29 -15 45 -25 17 -10 59 -35 95 -54 71
-39 216 -123 240 -138 8 -6 26 -16 40 -22 14 -7 57 -31 95 -54 39 -22 90 -52
115 -66 25 -14 77 -44 117 -67 80 -45 127 -72 192 -109 80 -45 146 -82 161
-92 32 -20 146 -85 155 -89 6 -2 66 -37 135 -76 69 -40 142 -82 162 -94 21
-12 55 -31 75 -42 21 -12 58 -33 82 -47 24 -13 119 -67 210 -120 91 -52 191
-108 221 -125 30 -16 63 -37 73 -45 9 -8 17 -12 17 -8 0 4 12 -1 28 -12 23
-16 367 -214 522 -300 25 -14 78 -45 118 -69 l73 -43 47 26 c91 50 130 72 392
222 146 84 272 156 280 162 8 5 31 18 50 28 19 11 138 78 264 151 125 72 232
131 237 131 5 0 9 4 9 9 0 5 8 11 18 14 9 3 44 22 77 41 33 20 72 41 88 47 15
6 27 14 27 18 0 4 16 13 35 21 19 8 35 17 35 21 0 4 8 9 18 12 9 3 44 22 77
41 33 20 67 39 75 43 8 3 17 9 20 12 3 3 31 20 62 36 32 17 58 33 58 38 0 4 9
7 19 7 11 0 26 6 33 13 12 12 59 40 158 93 19 11 37 21 40 24 5 5 25 17 99 57
25 14 87 50 138 79 51 30 97 54 102 54 6 0 11 5 11 10 0 6 5 10 10 10 6 0 40
18 76 40 36 22 67 40 69 40 2 0 38 20 79 45 42 25 81 45 86 45 5 0 15 6 22 12
7 7 33 24 58 37 25 14 48 29 52 35 4 6 8 7 8 3 0 -4 17 4 37 18 21 14 41 25
46 25 4 0 13 5 20 10 7 6 113 68 237 139 l225 128 0 2002 0 2002 -30 17 c-16
9 -32 19 -35 22 -5 5 -25 17 -99 57 -25 14 -89 51 -141 81 -52 31 -111 64
-130 74 -19 10 -42 23 -50 28 -15 10 -226 131 -310 178 -25 14 -87 49 -138 79
-51 29 -97 53 -102 53 -6 0 -10 4 -10 9 0 5 -8 11 -17 14 -10 3 -40 19 -68 35
-53 31 -156 91 -215 124 -19 11 -71 41 -115 67 -44 25 -92 53 -108 61 -32 18
-264 150 -289 165 -57 34 -133 75 -140 75 -4 0 -8 4 -8 9 0 5 -8 11 -17 14
-21 7 -117 60 -135 74 -7 6 -35 23 -63 38 -27 14 -63 34 -80 44 -56 33 -130
74 -152 85 -13 6 -23 14 -23 19 0 4 -6 7 -14 7 -7 0 -24 8 -37 19 -13 10 -28
20 -34 21 -5 2 -19 8 -30 15 -11 7 -94 54 -185 105 -91 52 -173 100 -182 108
-10 8 -18 11 -18 7 0 -4 -8 -1 -17 7 -24 20 -118 73 -119 67 -1 -2 -10 3 -20
12 -11 9 -82 51 -159 94 -77 43 -147 84 -155 90 -33 26 -50 22 -171 -47z m181
-728 c28 -16 53 -30 56 -30 3 0 17 -8 32 -19 15 -10 65 -40 111 -66 131 -74
142 -80 208 -119 34 -20 64 -36 67 -36 3 0 30 -16 60 -35 30 -19 60 -35 66
-35 5 0 10 -4 10 -10 0 -5 5 -10 10 -10 6 0 96 -49 201 -110 105 -60 194 -110
197 -110 3 0 13 -6 21 -14 9 -7 45 -29 81 -47 36 -19 67 -36 70 -40 3 -3 32
-20 65 -39 33 -18 75 -41 93 -52 17 -10 48 -27 68 -39 20 -11 114 -65 209
-119 175 -101 215 -123 295 -168 25 -14 78 -45 118 -69 41 -24 78 -43 83 -43
5 0 9 -4 9 -8 0 -4 12 -13 28 -19 27 -12 54 -27 170 -96 35 -20 66 -37 71 -37
4 0 12 -5 19 -12 8 -8 -13 -25 -90 -70 -56 -32 -103 -58 -105 -58 -2 0 -20
-11 -41 -23 -20 -13 -68 -41 -107 -62 -38 -21 -77 -43 -85 -49 -15 -11 -33
-21 -98 -57 -20 -11 -55 -31 -77 -44 -22 -13 -46 -24 -53 -25 -8 0 -44 17 -80
39 -37 21 -84 48 -104 60 -21 11 -54 30 -73 41 -19 11 -52 30 -72 41 -21 12
-81 47 -133 77 -52 31 -98 57 -102 57 -4 0 -13 6 -19 13 -7 6 -17 12 -21 12
-5 0 -25 11 -46 23 -20 13 -57 35 -82 49 -25 14 -101 57 -169 97 -69 39 -128
71 -133 71 -4 0 -8 3 -8 8 0 4 -10 12 -23 17 -46 22 -112 60 -115 68 -2 4 -8
7 -13 7 -8 0 -224 121 -296 166 -13 8 -26 15 -30 15 -5 1 -20 10 -35 20 -14
10 -31 19 -37 19 -6 0 -11 5 -11 10 0 6 -5 10 -10 10 -6 0 -38 17 -73 38 -34
20 -78 46 -98 56 l-37 19 -44 -25 c-24 -15 -70 -41 -103 -59 -33 -17 -67 -38
-76 -45 -8 -8 -18 -14 -21 -14 -3 0 -93 -50 -199 -111 -107 -62 -221 -127
-254 -146 -33 -18 -67 -37 -75 -42 -8 -6 -37 -22 -65 -37 -27 -14 -57 -32 -65
-38 -8 -6 -33 -21 -55 -33 -22 -11 -56 -30 -75 -41 -19 -12 -84 -49 -145 -83
-222 -126 -490 -279 -505 -289 -39 -25 -125 -70 -133 -70 -7 0 -241 130 -307
171 -59 36 -193 109 -201 109 -5 0 -9 3 -9 8 0 4 -10 12 -23 18 -72 36 -126
69 -119 76 6 5 118 71 432 251 19 11 58 32 85 47 28 15 85 48 128 74 43 25 80
46 82 46 3 0 29 16 59 35 30 19 57 35 60 35 3 0 67 36 142 80 75 44 138 80
140 80 2 0 49 27 104 60 55 33 103 60 105 60 3 0 34 18 70 40 36 22 67 40 69
40 2 0 65 36 141 80 76 44 141 80 146 80 5 0 9 4 9 9 0 5 8 11 18 14 19 6 86
44 232 129 52 30 118 68 145 83 47 26 167 94 210 120 11 7 25 13 30 15 6 1 21
11 34 21 31 24 31 24 91 -11z m55 -1568 c33 -19 72 -41 88 -49 15 -8 27 -16
27 -18 0 -7 -31 8 -85 39 -121 70 -140 80 -148 78 -5 -1 -5 2 -2 8 5 8 16 5
33 -6 15 -10 54 -33 87 -52z m171 -103 c3 -6 -5 -3 -20 6 -14 10 -26 19 -26
22 0 7 39 -17 46 -28z m224 -122 c30 -16 67 -38 82 -48 14 -11 31 -19 36 -19
6 0 17 -6 24 -12 8 -7 29 -22 48 -32 19 -11 53 -29 75 -41 22 -12 127 -73 232
-134 106 -61 197 -111 202 -111 5 0 11 -3 13 -8 2 -4 55 -36 118 -71 63 -35
122 -70 130 -77 13 -13 15 -103 15 -669 0 -360 -2 -655 -5 -655 -4 0 -10 4
-15 9 -8 8 -294 174 -418 244 -12 6 -24 15 -27 18 -3 3 -18 12 -35 21 -65 33
-100 53 -103 61 -2 4 -8 7 -13 7 -4 0 -48 23 -96 52 -48 28 -97 57 -108 62
-11 6 -89 51 -172 100 l-153 88 0 643 c0 354 -3 651 -6 659 -4 11 15 4 57 -20
35 -21 89 -50 119 -67z m-848 -566 l-2 -650 -58 -33 c-31 -18 -59 -31 -61 -29
-2 1 -7 -2 -10 -7 -3 -5 -29 -23 -58 -38 -28 -16 -93 -53 -145 -83 -51 -30
-107 -62 -125 -72 -17 -10 -49 -29 -70 -42 -21 -13 -65 -39 -98 -57 -71 -39
-67 -37 -305 -175 -102 -58 -189 -107 -195 -108 -6 -1 -9 237 -10 650 l0 652
40 23 c22 12 53 29 68 38 15 8 126 71 245 140 119 69 221 127 227 129 5 2 12
7 15 10 3 3 21 14 40 25 19 10 49 26 65 36 17 9 80 45 140 80 61 34 124 71
140 81 17 10 41 24 55 30 13 5 27 13 30 17 9 12 45 31 60 31 13 1 15 -76 12
-648z m-2472 379 c0 -5 5 -10 11 -10 7 0 68 -33 138 -73 69 -40 133 -76 141
-80 8 -4 30 -16 49 -28 19 -11 93 -54 165 -95 72 -42 135 -80 141 -85 6 -6 10
-379 11 -1037 1 -565 2 -1033 3 -1040 0 -7 9 -16 19 -19 9 -4 33 -16 52 -28
34 -21 109 -63 179 -101 19 -11 40 -23 45 -27 25 -19 428 -247 437 -247 5 0 9
-5 9 -10 0 -6 3 -9 8 -8 4 1 18 -5 32 -14 55 -35 152 -88 161 -88 5 0 9 -4 9
-10 0 -5 4 -10 10 -10 5 0 95 -49 200 -110 105 -60 196 -110 201 -110 5 0 9
-4 9 -10 0 -5 4 -10 9 -10 5 0 104 -54 220 -121 l211 -121 1 -361 c1 -199 0
-369 -1 -377 -4 -28 -4 -28 -75 13 -22 13 -67 38 -100 57 -33 18 -76 44 -95
57 -19 12 -40 23 -47 23 -7 0 -13 5 -13 10 0 6 -5 10 -11 10 -6 0 -60 29 -120
65 -61 36 -113 65 -115 65 -2 0 -21 11 -42 23 -20 13 -59 36 -87 51 -174 97
-651 372 -653 379 -2 4 -8 7 -14 7 -5 0 -40 17 -76 39 -37 21 -84 48 -104 60
-21 11 -53 29 -70 39 -18 11 -76 43 -128 73 -52 29 -96 57 -98 61 -2 5 -8 8
-13 8 -4 0 -43 20 -85 45 -41 25 -78 45 -80 45 -2 0 -21 10 -42 23 -20 13 -64
39 -97 57 -33 18 -84 47 -114 64 -50 29 -78 45 -161 91 -19 11 -38 24 -41 29
-11 14 -8 2846 2 2846 5 0 9 -4 9 -10z m5638 -1410 l0 -1420 -27 -18 c-29 -21
-649 -377 -696 -400 -16 -9 -32 -18 -35 -22 -3 -4 -20 -13 -37 -21 -18 -8 -33
-17 -33 -21 0 -5 -4 -8 -10 -8 -5 0 -31 -13 -58 -29 -26 -15 -68 -39 -93 -53
-292 -165 -1055 -604 -1060 -611 -3 -5 -8 -8 -10 -7 -8 4 -59 -24 -59 -32 0
-4 -9 -8 -19 -8 -11 0 -21 -4 -23 -8 -1 -5 -28 -22 -58 -39 -104 -57 -155 -86
-165 -93 -5 -3 -31 -19 -57 -34 l-48 -27 0 385 0 384 293 168 c160 92 321 183
357 203 36 19 67 38 68 43 2 4 7 8 12 8 4 0 121 65 261 145 139 80 257 145
261 145 4 0 8 5 8 10 0 6 5 10 10 10 6 0 65 32 131 70 66 39 124 70 129 70 6
0 10 5 10 10 0 6 4 10 9 10 5 0 64 32 131 70 67 39 125 70 129 70 3 0 6 467 6
1038 -1 896 1 1039 13 1055 9 9 19 17 23 17 4 0 42 20 83 45 42 25 81 45 86
45 6 0 10 4 10 8 0 4 12 13 28 19 15 7 115 63 222 126 107 63 198 115 201 116
4 0 7 -638 7 -1419z m-2774 -226 c25 -14 48 -30 52 -35 3 -5 10 -7 15 -4 5 4
9 1 9 -4 0 -6 4 -11 8 -11 8 0 146 -78 307 -172 28 -16 58 -32 68 -35 9 -3 17
-9 17 -14 0 -5 4 -9 9 -9 8 0 355 -195 391 -220 8 -6 29 -17 45 -26 26 -13 51
-27 140 -81 11 -6 18 -13 15 -16 -4 -3 -168 -97 -340 -195 -19 -11 -206 -117
-415 -237 -214 -123 -381 -213 -383 -206 -2 6 -7 11 -11 11 -13 0 -196 103
-199 112 -2 4 -8 8 -14 8 -5 0 -48 23 -95 50 -47 28 -86 50 -88 50 -2 0 -58
32 -126 71 -68 39 -196 112 -284 162 -88 49 -175 98 -192 109 -18 10 -50 27
-70 39 -49 27 -61 39 -41 39 9 0 23 6 30 13 7 6 31 21 53 32 22 10 47 24 55
31 8 6 35 22 60 35 25 13 47 26 50 29 3 3 16 11 30 18 31 16 67 37 243 140 76
45 147 84 158 87 10 4 19 11 19 16 0 5 5 9 11 9 6 0 43 20 82 44 40 24 82 46
95 50 12 4 22 12 22 17 0 5 4 9 9 9 9 0 153 81 161 91 6 7 31 17 46 18 6 1 32
-11 58 -25z m1436 -98 c0 -3 -4 -8 -10 -11 -5 -3 -10 -1 -10 4 0 6 5 11 10 11
6 0 10 -2 10 -4z m0 -86 c0 -5 -5 -10 -11 -10 -5 0 -7 5 -4 10 3 6 8 10 11 10
2 0 4 -4 4 -10z m-7 -35 c-3 -9 -8 -14 -10 -11 -3 3 -2 9 2 15 9 16 15 13 8
-4z m7 -86 c0 -5 -4 -9 -8 -9 -5 0 -9 7 -9 15 0 8 4 12 9 9 4 -3 8 -9 8 -15z
m-5 -28 c3 -5 2 -12 -3 -15 -5 -3 -9 1 -9 9 0 17 3 19 12 6z"/>
</g>
</svg>
